<svg width="915" height="827" viewBox="0 0 915 827" fill="none" xmlns="http://www.w3.org/2000/svg">
<path d="M154.314 476.314L153.775 475.931C146.279 470.51 134.565 459.663 127.44 452.97C92.3127 419.965 46.931 381.833 36.8455 332.526C30.1266 299.68 53.2677 273.859 84.9199 269.042C118.339 263.956 146.387 277.868 177.657 286.567C212.688 296.312 259.524 306.231 294.456 291.798C332.67 276.009 344.114 216.708 354.23 180.308C358.496 165.404 362.887 150.537 367.401 135.706C380.557 91.3411 403.748 10.338 457.512 0.522874C483.704 -3.05712 500.804 12.2183 514.668 31.9057C529.499 52.9607 533.863 71.9179 542.376 95.0351C560.434 144.07 566.239 214.395 593.301 258.377C598.208 266.383 604.611 273.369 612.16 278.953C647.071 304.493 708.618 288.505 745.582 274.279C756.401 270.088 767.107 265.609 777.682 260.847C803.388 249.218 835.292 232.303 862.148 251.631C871.853 258.617 878.715 273.329 879.473 285.093C884.309 360.347 826.367 418.369 774.371 463.559L750.227 484.317C737.561 495.154 727.987 502.801 718.211 516.721C695.499 549.068 706.027 582.59 717.659 616.631C730.409 653.927 746.162 691.149 748.52 731.003C749.928 755.68 747.851 784.773 732.177 805.114C723.085 816.919 709.713 823.332 695.022 824.744C637.683 829.693 581.234 782.256 537.446 750.671C521.758 739.357 503.176 725.03 485.688 718.342C475.716 714.437 464.907 713.174 454.308 714.684C427.254 718.431 402.192 743.58 380.594 760.713C337.171 795.165 277.131 840.754 218.085 822.513C195.715 815.605 183.89 788.131 182.686 766.864C181.154 743.37 184.73 717.276 188.662 694.025C188.177 693.651 186.904 693.034 186.328 692.842C174.207 688.768 164.215 698.426 155.381 704.619C141.642 714.249 115.172 734.74 97.5517 727.252C70.9233 715.943 89.1504 671.443 92.6223 650.84C93.3824 646.345 94.8931 641.481 94.2444 636.996C93.7089 633.287 92.1635 629.802 89.7776 626.912C86.2351 622.543 81.3165 619.54 76.8287 615.911C64.2615 605.752 46.0601 593.956 38.8478 579.162C36.3487 574.036 36.0943 567.024 38.4409 561.856C48.4258 541.763 81.5691 540.71 100.679 538.241C118.695 535.911 133.362 537.319 139.133 516.487C140.091 513.03 141.963 508.648 143.169 505.163C146.545 495.402 150.056 485.725 154.314 476.314Z" fill="#F53B9D"/>
<path d="M154.315 476.314C155.839 470.715 164.811 459.214 170.681 456.515C186.202 449.373 196.629 459.56 203.772 472.296C214.032 490.598 216.436 511.445 227.298 529.022C229.281 532.23 234.578 535.046 238.108 536.094C247.252 538.601 256.507 538.638 265.757 539.447C279.108 540.612 297.253 542.927 308.6 550.008C312.207 552.258 315.422 556.215 317.932 559.396C319.598 570.382 319.739 575.864 312.806 585.611C307.796 592.66 301.395 598.245 295.367 604.325C291.552 607.061 289.834 608.165 286.717 611.664C260.826 632.59 264.282 636.373 273.379 667.804C276.104 677.224 276.483 685.873 278.572 694.689L279.201 700.283C278.523 704.142 277.724 711.494 276.121 714.595C266.793 730.844 251.684 728.094 236.775 722.294C229.367 719.932 211.363 707.996 204.424 703.44C198.802 699.755 195.431 696.41 188.662 694.025C188.177 693.651 186.905 693.033 186.329 692.842C174.207 688.768 164.215 698.426 155.382 704.619C141.643 714.249 115.172 734.74 97.5522 727.252C70.9238 715.942 89.151 671.443 92.6229 650.84C93.3829 646.345 94.8937 641.481 94.245 636.996C93.7094 633.286 92.164 629.802 89.7782 626.911C86.2357 622.543 81.3171 619.54 76.8293 615.911C64.2621 605.752 46.0606 593.956 38.8483 579.162C36.3493 574.035 36.0949 567.024 38.4414 561.856C48.4264 541.762 81.5697 540.71 100.68 538.241C118.695 535.911 133.362 537.319 139.133 516.487C140.091 513.03 141.963 508.648 143.169 505.163C146.545 495.402 150.056 485.725 154.315 476.314Z" fill="#4DC5A0"/>
<path d="M114.773 678.169C136.268 676.944 129.762 705.105 113.716 709.516C110.872 709.6 108.22 709.82 105.681 708.562C95.2844 703.417 99.6745 689.076 106.63 682.879C109.814 680.04 111.011 679.451 114.773 678.169Z" fill="#26A079"/>
<path d="M242.029 678.188C245.113 677.917 246.47 677.795 249.369 679.03C254.901 681.439 259.268 685.92 261.535 691.509C264.553 699.128 263.625 706.069 255.36 709.016C253.811 709.189 252.25 709.24 250.693 709.17C238.738 708.67 234.186 694.956 234.77 684.764C237.066 681.355 238.604 680.232 242.029 678.188Z" fill="#26A079"/>
<path d="M176.848 473.896C179.186 473.714 181.563 473.803 183.913 473.835C193.387 479.593 193.575 494.49 183.042 499.303C167.037 502.932 165.916 477.526 176.848 473.896Z" fill="#26A079"/>
<path d="M60.0376 561.795C64.1816 561.58 67.248 561.229 71.0459 563.334C77.5842 566.954 78.0921 572.936 74.681 578.951C73.2737 579.91 71.4893 580.902 70.0038 581.776C55.5138 584.367 47.1387 568.268 60.0376 561.795Z" fill="#26A079"/>
<path d="M290.327 561.285C293.702 561.07 296.255 561.365 299.484 562.31C306.343 570.387 305.409 578.338 294.605 581.8C279.222 582.408 276.102 567.431 290.327 561.285Z" fill="#26A079"/>
<path d="M165.422 622.913C173.414 622.66 169.054 630.583 175.339 634.241C177.675 635.471 182.149 635.293 184.497 634.456C190.56 632.3 187.31 624.362 194.143 622.421C198.164 623.319 197.634 627.978 196.894 631.018C196.407 632.356 195.764 633.918 194.955 635.078C192.147 639.175 187.735 641.883 182.814 642.543C177.91 643.258 172.931 641.874 169.1 638.731C164.536 635.008 160.795 628.015 165.422 622.913Z" fill="black"/>
<path d="M176.194 505.14C180.786 504.841 186.244 505.159 188.65 509.565C192.432 516.487 189.836 522.137 183.68 525.594C181.394 525.781 179.078 525.64 176.78 525.57C169.985 521.683 170.017 518.788 170.226 511.595C172.111 508.316 173.036 507.189 176.194 505.14Z" fill="#26A079"/>
<path d="M225.941 658.548C236.642 657.412 238.417 663.745 237.909 672.762C235.611 675.227 234.538 676.261 231.501 677.706C227.054 677.889 222.916 677 220.465 672.861C219.116 670.578 218.802 667.828 219.604 665.302C220.749 661.607 222.723 660.195 225.941 658.548Z" fill="#26A079"/>
<path d="M130.917 658.511C142.422 657.702 143.404 663.371 142.62 673.052C140.357 675.129 138.84 676.046 136.267 677.716C122.666 678.029 119.76 664.741 130.917 658.511Z" fill="#26A079"/>
<path d="M87.6482 572.525C99.6612 572.408 101.879 584.831 91.441 590.256C89.5191 590.504 87.4251 590.518 85.6281 589.704C83.3817 588.671 81.674 586.739 80.9242 584.382C80.0454 581.734 80.3475 578.834 81.7535 576.426C83.2914 573.792 84.8788 573.203 87.6482 572.525Z" fill="#26A079"/>
<path d="M267.766 572.534C268.156 572.51 268.547 572.496 268.938 572.487C277.825 572.286 278.326 578.03 278.099 585.106C275.982 588.058 275.069 588.867 271.763 590.326C270.112 590.34 268.889 590.317 267.271 589.891C264.935 589.278 262.972 587.697 261.88 585.541C258.953 579.863 262.596 574.952 267.766 572.534Z" fill="#26A079"/>
<path d="M276.121 714.596C297.649 729.437 292.04 755.938 279.098 774.417C268 790.264 244.34 803.959 226.221 791.522C207.55 778.702 215.439 749.768 226.395 734.619C229.6 730.185 233.566 726.471 236.775 722.294C251.684 728.094 266.793 730.844 276.121 714.596Z" fill="#E60C7F"/>
<path d="M278.571 694.69C278.378 690.251 278.341 687.571 280.063 683.315C283.844 673.974 291.921 668.422 302.036 668.441C314.787 668.464 324.185 678.857 323.436 691.481C322.754 705.667 311.734 714.862 297.728 713.408C289.99 712.603 286.003 709.049 281.403 703.249C280.631 702.29 279.896 701.299 279.201 700.284L278.571 694.69Z" fill="#E60C7F"/>
<path d="M295.366 604.325C295.073 610.92 292.033 610.705 286.716 611.664C289.833 608.165 291.552 607.061 295.366 604.325Z" fill="#E60C7F"/>
<path d="M667.44 709.212C690.705 705.76 711.083 733.225 713.88 753.791C716.34 771.91 709.601 790.137 689.133 792.364C676.766 792.49 672.636 790.727 662.407 783.893C637.931 767.546 628.418 713.487 667.44 709.212Z" fill="#E60C7F"/>
<path d="M459.098 34.6585C498.826 31.173 506.305 92.1959 483.414 114.442C478.358 119.36 475.173 120.571 468.419 122.064C450.529 125.059 438.424 112.41 433.42 96.5976C428.662 82.0215 430.028 66.1372 437.208 52.5877C442.423 42.7856 448.578 37.8226 459.098 34.6585Z" fill="#E60C7F"/>
<path d="M829.488 274.708C878.453 272.883 859.571 344.982 811.859 352.647C800.718 352.865 788.791 350.25 784.104 338.529C773.436 311.844 803.272 276.645 829.488 274.708Z" fill="#E60C7F"/>
<path d="M89.248 296.638C139.554 293.604 165.573 357.787 117.828 365.159C68.1541 366.899 40.9093 304 89.248 296.638Z" fill="#E60C7F"/>
<path d="M459.701 135.535C475.983 132.913 491.286 144.062 493.779 160.367C496.277 176.672 485.005 191.886 468.681 194.252C452.54 196.591 437.531 185.474 435.062 169.35C432.597 153.226 443.593 138.129 459.701 135.535Z" fill="#E60C7F"/>
<path d="M459.561 208.218C473.415 205.553 486.824 214.571 489.574 228.407C492.329 242.243 483.4 255.707 469.579 258.55C455.636 261.418 442.021 252.388 439.243 238.426C436.464 224.464 445.58 210.908 459.561 208.218Z" fill="#E60C7F"/>
<path d="M425.039 496.768C427.923 496.497 430.459 496.15 432.863 498.049C436.315 500.771 436.507 505.524 437.512 509.466C439.87 518.723 446.282 524.887 455.66 526.426C467.358 528.344 479.458 524.597 484.43 512.96C486.764 508.218 485.552 500.814 490.538 497.656C494.448 495.177 500.028 496.398 502.138 500.655C504.631 505.678 502.858 512.245 501.324 517.282C494.107 536.725 474.041 547.427 453.957 544.003C444.177 542.455 432.377 535.897 426.891 527.366C421.437 518.886 414.172 503.844 425.039 496.768Z" fill="black"/>
<path d="M753.225 338.623C765.938 337.118 777.472 346.194 778.997 358.904C780.521 371.616 771.462 383.161 758.754 384.706C746.017 386.254 734.441 377.172 732.912 364.433C731.382 351.693 740.484 340.131 753.225 338.623Z" fill="#E60C7F"/>
<path d="M594.611 622.599C607.165 621.916 617.88 631.561 618.517 644.114C619.153 656.673 609.461 667.351 596.908 667.935C584.42 668.52 573.807 658.894 573.175 646.411C572.544 633.923 582.128 623.277 594.611 622.599Z" fill="#E60C7F"/>
<path d="M627.16 668.861C639.339 666.134 651.43 673.763 654.218 685.928C657.005 698.089 649.442 710.222 637.291 713.075C625.055 715.942 612.815 708.314 610.008 696.059C607.197 683.81 614.891 671.607 627.16 668.861Z" fill="#E60C7F"/>
<path d="M329.948 623.385C342.037 620.298 354.338 627.609 357.4 639.704C360.462 651.804 353.121 664.086 341.018 667.122C328.954 670.148 316.717 662.833 313.665 650.775C310.612 638.717 317.897 626.467 329.948 623.385Z" fill="#E60C7F"/>
<path d="M693.081 368.519C705.059 365.96 716.846 373.58 719.428 385.551C722.014 397.521 714.418 409.325 702.454 411.934C690.452 414.552 678.605 406.93 676.014 394.923C673.423 382.916 681.07 371.086 693.081 368.519Z" fill="#E60C7F"/>
<path d="M167.035 343.747C179.082 342.725 189.71 351.582 190.877 363.616C192.043 375.649 183.314 386.383 171.295 387.694C163.392 388.555 155.635 385.101 150.988 378.649C146.341 372.198 145.522 363.747 148.844 356.523C152.164 349.3 159.113 344.42 167.035 343.747Z" fill="#E60C7F"/>
<path d="M219.457 368.103C231.414 367.507 241.572 376.76 242.089 388.721C242.607 400.683 233.287 410.778 221.322 411.217C209.469 411.652 199.487 402.438 198.974 390.587C198.462 378.737 207.61 368.694 219.457 368.103Z" fill="#E60C7F"/>
<path d="M560.288 351.007C599.717 348.409 633.743 378.371 636.166 417.824C638.589 457.275 608.486 491.181 569.035 493.428C529.83 495.667 496.193 465.781 493.784 426.574C491.377 387.367 521.104 353.588 560.288 351.007Z" fill="#FEFEFE"/>
<path d="M565.877 366.304C596.751 366.725 621.441 392.097 621.029 422.98C620.618 453.863 595.261 478.569 564.388 478.167C533.5 477.765 508.789 452.387 509.2 421.49C509.612 390.593 534.99 365.883 565.877 366.304Z" fill="black"/>
<path d="M541.036 385.423C550.506 384.215 559.184 390.856 560.494 400.315C561.805 409.774 555.26 418.526 545.819 419.94C539.62 420.868 533.4 418.393 529.533 413.459C525.665 408.524 524.746 401.892 527.126 396.091C529.506 390.291 534.818 386.217 541.036 385.423Z" fill="#FEFEFE"/>
<path d="M354.921 351.007C394.35 348.409 428.376 378.371 430.799 417.824C433.222 457.275 403.119 491.181 363.669 493.428C324.464 495.667 290.826 465.781 288.418 426.574C286.01 387.367 315.737 353.588 354.921 351.007Z" fill="#FEFEFE"/>
<path d="M360.511 366.304C391.384 366.725 416.074 392.097 415.663 422.98C415.251 453.863 389.895 478.569 359.021 478.167C328.133 477.765 303.422 452.387 303.834 421.49C304.245 390.593 329.623 365.883 360.511 366.304Z" fill="black"/>
<path d="M335.669 385.423C345.139 384.215 353.817 390.856 355.128 400.315C356.439 409.774 349.894 418.526 340.452 419.94C334.253 420.868 328.034 418.393 324.166 413.459C320.299 408.524 319.379 401.892 321.759 396.091C324.139 390.291 329.451 386.217 335.669 385.423Z" fill="#FEFEFE"/>
<path d="M138.439 558.214C155.889 557.065 170.948 570.325 172.021 587.786C173.093 605.246 159.77 620.251 142.311 621.245C124.96 622.237 110.073 609.01 109.007 591.658C107.942 574.306 121.098 559.357 138.439 558.214Z" fill="#FEFEFE"/>
<path d="M140.913 564.984C154.576 565.171 165.503 576.399 165.321 590.067C165.139 603.735 153.917 614.669 140.253 614.491C126.584 614.313 115.647 603.082 115.829 589.408C116.012 575.734 127.243 564.798 140.913 564.984Z" fill="black"/>
<path d="M129.919 573.446C134.11 572.911 137.951 575.85 138.531 580.037C139.111 584.223 136.214 588.097 132.036 588.722C129.292 589.133 126.54 588.037 124.828 585.854C123.116 583.67 122.71 580.735 123.763 578.168C124.816 575.601 127.167 573.797 129.919 573.446Z" fill="#FEFEFE"/>
<path d="M217.5 558.214C234.95 557.065 250.009 570.325 251.082 587.786C252.154 605.246 238.831 620.251 221.372 621.245C204.021 622.237 189.134 609.01 188.068 591.658C187.003 574.306 200.159 559.357 217.5 558.214Z" fill="#FEFEFE"/>
<path d="M219.974 564.984C233.638 565.171 244.565 576.399 244.383 590.067C244.201 603.735 232.979 614.669 219.315 614.491C205.645 614.313 194.709 603.082 194.891 589.408C195.073 575.734 206.305 564.798 219.974 564.984Z" fill="black"/>
<path d="M208.98 573.446C213.172 572.911 217.012 575.85 217.592 580.037C218.172 584.223 215.276 588.097 211.097 588.722C208.354 589.133 205.601 588.037 203.89 585.854C202.178 583.67 201.771 580.735 202.824 578.168C203.878 575.601 206.229 573.797 208.98 573.446Z" fill="#FEFEFE"/>
</svg>
